# xmcd
#
# Track frame offsets: 
#        150
#        36967
#        52697
#        72967
#        89505
#        121182
#        143865
#        157242
#        172095
#        191292
#        205415
#        227057
#
# Disc length: 3126 seconds
#
# Revision: 4
# Processed by: cddbd v1.5.2PL0 Copyright (c) Steve Scherf et al.
# Submitted via: ExactAudioCopyFreeDBPlugin 1.0
#
DISCID=a80c340c
DTITLE=Bobby 'Blue' Bland - Mercy Mecy Me
DYEAR=2000
DGENRE=Blues
TTITLE0=Mels's Groove (Instrumental)
TTITLE1=Ain't That Loving You
TTITLE2=I'll Take Care Of You
TTITLE3=Soul Of A Man
TTITLE4=I Intend To Take Your Place
TTITLE5=Soon As The Weather Breaks
TTITLE6=Today I Started Loving You Again
TTITLE7=Share Your Love With Me
TTITLE8=Recess In Heaven
TTITLE9=Ain't Nothin' You Can Do
TTITLE10=Stormy Monday Blues
TTITLE11=Farther Up The Road
EXTD=YEAR: 2000
EXTT0=
EXTT1=
EXTT2=
EXTT3=
EXTT4=
EXTT5=
EXTT6=
EXTT7=
EXTT8=
EXTT9=
EXTT10=
EXTT11=
PLAYORDER=
